<svg width="32" height="32" viewBox="0 0 32 32" fill="none" xmlns="http://www.w3.org/2000/svg">
<path fill-rule="evenodd" clip-rule="evenodd" d="M26.3332 16.0002C26.3332 15.7349 26.2278 15.4806 26.0403 15.2931C25.8527 15.1055 25.5984 15.0002 25.3332 15.0002H6.6665C6.40129 15.0002 6.14693 15.1055 5.9594 15.2931C5.77186 15.4806 5.6665 15.7349 5.6665 16.0002C5.6665 16.2654 5.77186 16.5197 5.9594 16.7073C6.14693 16.8948 6.40129 17.0002 6.6665 17.0002H25.3332C25.5984 17.0002 25.8527 16.8948 26.0403 16.7073C26.2278 16.5197 26.3332 16.2654 26.3332 16.0002ZM26.3332 9.3335C26.3332 9.06828 26.2278 8.81393 26.0403 8.62639C25.8527 8.43885 25.5984 8.3335 25.3332 8.3335H6.6665C6.40129 8.3335 6.14693 8.43885 5.9594 8.62639C5.77186 8.81393 5.6665 9.06828 5.6665 9.3335C5.6665 9.59871 5.77186 9.85307 5.9594 10.0406C6.14693 10.2281 6.40129 10.3335 6.6665 10.3335H25.3332C25.5984 10.3335 25.8527 10.2281 26.0403 10.0406C26.2278 9.85307 26.3332 9.59871 26.3332 9.3335ZM26.3332 22.6668C26.3332 22.4016 26.2278 22.1473 26.0403 21.9597C25.8527 21.7722 25.5984 21.6668 25.3332 21.6668H6.6665C6.40129 21.6668 6.14693 21.7722 5.9594 21.9597C5.77186 22.1473 5.6665 22.4016 5.6665 22.6668C5.6665 22.932 5.77186 23.1864 5.9594 23.3739C6.14693 23.5615 6.40129 23.6668 6.6665 23.6668H25.3332C25.5984 23.6668 25.8527 23.5615 26.0403 23.3739C26.2278 23.1864 26.3332 22.932 26.3332 22.6668Z" fill="white"/>
</svg>
