<svg width="14" height="22" viewBox="0 0 14 22" fill="none" xmlns="http://www.w3.org/2000/svg">
<g clip-path="url(#clip0_177_448)">
<path d="M13.7899 10.8897L7.75241 4.85531L7.34772 4.45063C7.25551 4.35903 7.13082 4.30762 7.00085 4.30762C6.87087 4.30762 6.74618 4.35903 6.65397 4.45063L0.211783 10.8897C0.117301 10.9838 0.0426296 11.0959 -0.00782254 11.2193C-0.0582747 11.3428 -0.0834854 11.4751 -0.0819665 11.6084C-0.0757165 12.1584 0.382096 12.5975 0.932096 12.5975H1.59616V17.6866H12.4055V12.5975H13.0837C13.3508 12.5975 13.6024 12.4928 13.7915 12.3038C13.8846 12.211 13.9583 12.1006 14.0085 11.9791C14.0586 11.8576 14.0842 11.7274 14.0837 11.5959C14.0837 11.3303 13.979 11.0788 13.7899 10.8897ZM7.87585 16.5616H6.12585V13.3741H7.87585V16.5616ZM11.2805 11.4725V16.5616H8.87585V12.9991C8.87585 12.6538 8.59616 12.3741 8.25085 12.3741H5.75085C5.40553 12.3741 5.12585 12.6538 5.12585 12.9991V16.5616H2.72116V11.4725H1.22116L7.00241 5.69594L7.36335 6.05688L12.7821 11.4725H11.2805Z" fill="black" fill-opacity="0.45"/>
</g>
<defs>
<clipPath id="clip0_177_448">
<rect width="14" height="14" fill="white" transform="translate(0 4)"/>
</clipPath>
</defs>
</svg>
