<svg width="24" height="24" viewBox="0 0 24 24" fill="none" xmlns="http://www.w3.org/2000/svg">
<path d="M15.3978 11.6628L9.36027 6.94719C9.34449 6.93477 9.32553 6.92705 9.30557 6.92492C9.2856 6.92279 9.26544 6.92633 9.2474 6.93514C9.22936 6.94395 9.21417 6.95768 9.20357 6.97473C9.19298 6.99179 9.18741 7.01149 9.1875 7.03156V8.06683C9.1875 8.13246 9.2183 8.1954 9.2692 8.23558L14.0906 12.0003L9.2692 15.765C9.21697 15.8052 9.1875 15.8682 9.1875 15.9338V16.9691C9.1875 17.0588 9.29063 17.1083 9.36027 17.0534L15.3978 12.3378C15.4491 12.2978 15.4906 12.2466 15.5191 12.1881C15.5477 12.1296 15.5625 12.0654 15.5625 12.0003C15.5625 11.9352 15.5477 11.871 15.5191 11.8125C15.4906 11.754 15.4491 11.7028 15.3978 11.6628Z" fill="#333333"/>
</svg>
