<svg width="24" height="24" viewBox="0 0 24 24" fill="none" xmlns="http://www.w3.org/2000/svg">
<path d="M14.8396 8.06646V7.03119C14.8396 6.94146 14.7365 6.8919 14.6669 6.94681L8.62935 11.6624C8.57805 11.7023 8.53655 11.7534 8.50799 11.8118C8.47944 11.8702 8.4646 11.9343 8.4646 11.9993C8.4646 12.0643 8.47944 12.1284 8.50799 12.1868C8.53655 12.2451 8.57805 12.2962 8.62935 12.3361L14.6669 17.0517C14.7378 17.1066 14.8396 17.0571 14.8396 16.9673V15.9321C14.8396 15.8665 14.8088 15.8035 14.7579 15.7633L9.93649 11.9999L14.7579 8.23521C14.8088 8.19503 14.8396 8.13208 14.8396 8.06646Z" fill="#D9D9D9"/>
</svg>
