<svg width="16" height="16" viewBox="0 0 16 16" fill="none" xmlns="http://www.w3.org/2000/svg">
<g id="Forward">
<path id="Vector" fill-rule="evenodd" clip-rule="evenodd" d="M9.52869 13.8047C9.40371 13.6797 9.3335 13.5101 9.3335 13.3333C9.3335 13.1565 9.40371 12.987 9.52869 12.862L11.724 10.6665L8.00002 10.6665C6.58553 10.6665 5.22898 10.1046 4.22878 9.10435C3.22859 8.10411 2.66669 6.74749 2.66669 5.33293L2.66669 2.66613C2.66669 2.48932 2.73693 2.31974 2.86195 2.19471C2.98697 2.06968 3.15654 1.99944 3.33335 1.99944C3.51017 1.99944 3.67973 2.06968 3.80476 2.19471C3.92978 2.31974 4.00002 2.48932 4.00002 2.66613L4.00002 5.33293C4.00002 6.39385 4.42145 7.41131 5.17159 8.1615C5.92174 8.91168 6.93915 9.33313 8.00002 9.33313L11.724 9.33313L9.52869 7.13769C9.40725 7.01195 9.34005 6.84354 9.34157 6.66873C9.34309 6.49392 9.4132 6.32671 9.53681 6.2031C9.66041 6.07948 9.82762 6.00937 10.0024 6.00785C10.1772 6.00633 10.3456 6.07353 10.4714 6.19497L13.8047 9.52847C13.9297 9.65349 13.9999 9.82304 13.9999 9.99983C13.9999 10.1766 13.9297 10.3462 13.8047 10.4712L10.4714 13.8047C10.3463 13.9297 10.1768 13.9999 10 13.9999C9.82324 13.9999 9.6537 13.9297 9.52869 13.8047Z" fill="#979797"/>
</g>
</svg>
