<svg width="28" height="28" viewBox="0 0 28 28" fill="none" xmlns="http://www.w3.org/2000/svg">
<g clip-path="url(#clip0_282_697)">
<path fill-rule="evenodd" clip-rule="evenodd" d="M12.25 2.3335C10.6687 2.33363 9.11035 2.71192 7.70497 3.43681C6.2996 4.16169 5.08795 5.21215 4.17111 6.50054C3.25428 7.78893 2.65885 9.2779 2.4345 10.8432C2.21015 12.4085 2.36338 14.0048 2.88141 15.4988C3.39945 16.9929 4.26726 18.3414 5.41245 19.4318C6.55764 20.5223 7.94699 21.3231 9.4646 21.7674C10.9822 22.2117 12.5841 22.2866 14.1365 21.9859C15.689 21.6852 17.147 21.0176 18.389 20.0388L22.6497 24.2995C22.8697 24.512 23.1644 24.6296 23.4703 24.6269C23.7762 24.6243 24.0688 24.5016 24.2851 24.2853C24.5014 24.069 24.6241 23.7764 24.6268 23.4705C24.6294 23.1646 24.5119 22.8699 24.2993 22.6498L20.0387 18.3892C21.1913 16.9269 21.909 15.1696 22.1096 13.3185C22.3102 11.4674 21.9856 9.59719 21.1729 7.92194C20.3603 6.24669 19.0924 4.83408 17.5144 3.84577C15.9363 2.85745 14.112 2.33337 12.25 2.3335ZM4.66667 12.2502C4.66667 10.2389 5.46563 8.31009 6.88778 6.88794C8.30993 5.46579 10.2388 4.66683 12.25 4.66683C14.2612 4.66683 16.1901 5.46579 17.6122 6.88794C19.0344 8.31009 19.8333 10.2389 19.8333 12.2502C19.8333 14.2614 19.0344 16.1902 17.6122 17.6124C16.1901 19.0345 14.2612 19.8335 12.25 19.8335C10.2388 19.8335 8.30993 19.0345 6.88778 17.6124C5.46563 16.1902 4.66667 14.2614 4.66667 12.2502Z" fill="#342794"/>
</g>
<defs>
<clipPath id="clip0_282_697">
<rect width="28" height="28" fill="white"/>
</clipPath>
</defs>
</svg>
