<svg width="24" height="24" viewBox="0 0 24 24" fill="none" xmlns="http://www.w3.org/2000/svg">
<path fill-rule="evenodd" clip-rule="evenodd" d="M22.0768 3.96369C21.8654 3.59217 21.4676 3.37726 21.0497 3.37726L2.95778 3.3904C2.45393 3.39045 2.01711 3.70162 1.84249 4.16528L1.84232 4.16572C1.71661 4.50095 1.7448 4.86667 1.91741 5.16873L1.91982 5.17295L1.92235 5.1771C1.98731 5.2834 2.0698 5.38352 2.16971 5.47168L9.05615 11.4102L10.7346 20.3261L10.7348 20.3267C10.8265 20.8207 11.2089 21.1886 11.7046 21.2672C12.1952 21.3456 12.6782 21.1146 12.9303 20.6884L12.9307 20.6877L22.0705 5.15083L21.8675 4.79816C21.8676 4.79802 21.8676 4.79787 21.8677 4.79773L22.0707 5.15043C22.2884 4.78122 22.2897 4.33008 22.0768 3.96369ZM21.2537 3.73152L21.0497 3.37726L21.2536 3.73149C21.2537 3.7315 21.2537 3.73151 21.2537 3.73152ZM10.091 9.68017L5.07797 5.3528H17.6742L10.091 9.68017ZM12.2907 17.8762L11.0688 11.3839L18.6668 7.05072L12.2907 17.8762Z" fill="black"/>
</svg>
