<svg width="114" height="32" viewBox="0 0 114 32" fill="none" xmlns="http://www.w3.org/2000/svg">
<g clip-path="url(#clip0_155_2036)">
<path fill-rule="evenodd" clip-rule="evenodd" d="M6.1922 0.0460184C6.52 -0.0434814 6.86317 0.0102185 7.18841 0.0843754C7.67242 0.207118 8.17692 0.337532 8.57643 0.654617C8.7813 0.813159 8.96313 1.04586 8.9452 1.31947C8.9452 5.96579 8.9452 10.6095 8.9452 15.2559C8.9324 16.7799 9.02971 18.3168 8.74801 19.8255C8.53545 21.0478 8.06168 22.2675 7.18328 23.1702C6.8939 23.495 6.5661 23.7916 6.1794 23.9987C5.85672 24.1726 5.50075 24.326 5.1243 24.2979C5.03979 24.2058 4.96552 24.0959 4.98345 23.9655C5.01162 23.6024 5.14478 23.2623 5.26259 22.9222C5.61856 21.7638 5.71843 20.544 5.75941 19.3396C5.79014 13.6781 5.80038 8.01661 5.82855 2.35511C5.82855 2.20936 5.81831 2.0636 5.79526 1.91784C5.57758 1.92807 5.44185 2.10707 5.29588 2.2426C4.61211 2.90745 4.04615 3.69505 3.64408 4.55936C3.11653 5.66149 2.84763 6.87357 2.74007 8.08565C2.64532 8.87325 2.70934 9.67619 2.89629 10.4484C3.05507 11.0443 3.29579 11.6273 3.6825 12.1106C3.84896 12.3049 3.9053 12.6041 3.76444 12.8266C3.55701 13.0388 3.23689 12.9263 2.99361 12.8496C2.17667 12.5581 1.47498 11.9981 0.93718 11.3255C0.291826 10.5124 0.0203679 9.46395 0.00244141 8.4411C0.0639037 7.53587 0.309753 6.65366 0.637552 5.8098C1.11388 4.56448 1.82326 3.40098 2.72983 2.4216C3.31628 1.80789 3.96676 1.25043 4.67101 0.772245C5.14735 0.470503 5.64673 0.186661 6.19477 0.0460184H6.1922ZM36.931 0.271046C37.1974 0.0434612 37.5764 0.076704 37.8991 0.117618C38.4804 0.212232 39.0592 0.357989 39.5995 0.590688C39.766 0.659731 39.9119 0.769688 40.0426 0.894988C39.9913 2.16077 39.9401 3.42911 39.871 4.69489C41.1489 4.75371 42.4268 4.82275 43.7047 4.89946C43.9275 4.90969 44.2246 4.97362 44.2604 5.237C44.3116 5.62825 44.2527 6.04762 44.0683 6.4005C43.9582 6.58462 43.802 6.80964 43.5613 6.7943C42.3218 6.81476 41.0823 6.85312 39.8402 6.87102C39.7711 8.65078 39.725 10.4331 39.6635 12.2129C39.6302 13.8367 39.4817 15.4655 39.6559 17.0868C39.7327 17.7158 39.8146 18.3679 40.1219 18.9356C40.2474 19.1811 40.4753 19.3933 40.7571 19.4291C41.1258 19.4624 41.4895 19.3115 41.7635 19.0737C42.2014 18.7003 42.501 18.1991 42.7597 17.6903C43.0619 17.1072 43.2796 16.4833 43.4793 15.8593C43.5536 15.5832 43.4947 15.2968 43.5203 15.0155C43.5382 13.5272 43.7738 12.0339 44.2835 10.6326C44.6676 9.61738 45.2131 8.61498 46.0735 7.92455C47.0108 7.14207 48.3861 6.88124 49.5257 7.35943C50.2607 7.64583 50.8574 8.22374 51.2261 8.91417C51.2748 8.58685 51.198 8.23141 51.3439 7.92711C51.5514 7.59468 51.9893 7.57934 52.3401 7.61003C52.8088 7.66373 53.2774 7.7788 53.6897 8.0115C53.9407 8.1547 54.1917 8.38484 54.2019 8.69425C54.12 11.4099 54.0099 14.1282 54.0944 16.8464C54.12 17.4371 54.2019 18.0252 54.33 18.6006C54.4375 19.0149 54.5707 19.4675 54.919 19.7462C55.2442 19.9968 55.7154 19.9175 56.0227 19.6746C56.5196 19.2885 56.8064 18.708 57.0574 18.1454C57.1214 17.9843 57.2161 17.8207 57.1828 17.6391C56.9959 16.0102 56.9626 14.3532 57.2264 12.7294C57.4133 11.6401 57.7411 10.5584 58.3045 9.60204C58.8756 8.62521 59.7054 7.77368 60.7374 7.28527C60.9372 7.20344 61.1369 7.0986 61.3546 7.0807C62.3713 7.07303 63.4264 7.41057 64.1511 8.14447C64.3381 8.34648 64.4969 8.57662 64.6428 8.80932C64.7094 8.50502 64.6403 8.18027 64.7478 7.88364C64.9117 7.54098 65.3548 7.52053 65.6826 7.564C66.2357 7.6535 66.8017 7.77368 67.2959 8.05241C67.6007 8.23141 67.6007 8.62265 67.5853 8.93207C67.5572 11.993 67.5136 15.0538 67.4906 18.1173C68.1872 17.1379 68.8223 16.1125 69.3677 15.0411C70.0361 13.742 70.6021 12.374 70.8889 10.9343C70.5074 10.5891 70.1565 10.1697 70.0464 9.65829C69.9465 9.24148 70.0413 8.80932 70.1565 8.4053C70.3409 7.7967 70.7942 7.23669 71.4242 7.06024C71.9031 6.92471 72.4511 6.91193 72.8993 7.15486C73.2399 7.33641 73.4319 7.7072 73.4883 8.07543C73.5523 8.45132 73.496 8.83234 73.4242 9.20057C74.2437 9.07015 75.0658 8.93718 75.8699 8.73517C76.4231 8.60987 77.0172 8.51014 77.5704 8.68402C77.9648 8.7991 78.2542 9.15709 78.3489 9.55089C78.4488 9.97026 78.4821 10.4254 78.3207 10.8346C78.1056 11.3767 78.0544 11.9623 77.9315 12.5274C77.6703 14.0284 77.3322 15.5653 77.5858 17.0919C77.6779 17.7721 77.8188 18.4548 78.0851 19.0916C78.249 19.4291 78.459 19.7973 78.8432 19.9175C79.2196 20.0173 79.6038 19.8255 79.8957 19.5953C80.3746 19.1657 80.6896 18.5648 80.8356 17.946C80.5129 16.3452 80.4361 14.6831 80.6947 13.067C80.8817 11.8523 81.2274 10.6556 81.8164 9.57135C82.2774 8.75562 82.9227 8.00127 83.7832 7.58957C84.7384 7.11906 85.9216 7.11906 86.8538 7.64583C87.43 7.94501 87.8704 8.44621 88.2008 8.996C88.252 8.66612 88.1675 8.2979 88.3442 7.99871C88.608 7.6714 89.0869 7.69186 89.4633 7.74556C90.0165 7.84273 90.6234 7.97825 91.0127 8.41808C91.2637 8.69425 91.1407 9.08549 91.1433 9.42048C91.0972 11.2054 91.0229 12.9877 91.0281 14.7751C91.0383 16.1381 90.9845 17.5266 91.3507 18.8538C91.4557 19.1939 91.594 19.5544 91.8911 19.7743C92.2215 20.0147 92.6952 19.9636 93.0128 19.7232C93.4456 19.3959 93.7375 18.9228 93.9911 18.4497C94.1908 18.0252 94.4315 17.6084 94.5417 17.1507C94.5493 14.1486 94.5647 11.1465 94.5698 8.14447C94.5493 7.88875 94.6415 7.59468 94.8951 7.48473C95.0795 7.36966 95.2971 7.45404 95.4943 7.47706C96.0244 7.57678 96.5853 7.59213 97.077 7.84273C97.2614 7.93223 97.456 8.09588 97.4406 8.32091C97.4355 9.80405 97.4406 11.2872 97.4381 12.7703C97.4381 12.9417 97.4381 13.113 97.456 13.2843C97.8939 11.9316 98.3549 10.584 98.8773 9.25938C99.0848 8.77097 99.2973 8.28 99.5662 7.82227C99.7685 7.45404 100.24 7.39267 100.619 7.41568C101.425 7.47706 102.281 7.82483 102.711 8.54594C102.865 8.80932 102.931 9.11618 102.931 9.41792C102.916 10.9624 103.003 12.5018 103.113 14.0412C103.149 14.5194 103.157 15.0002 103.231 15.4758C103.282 15.44 103.313 15.3914 103.321 15.33C103.479 14.1895 103.766 13.0746 104.086 11.9699C104.45 10.7476 104.847 9.53555 105.354 8.36438C105.485 8.07287 105.61 7.74044 105.912 7.5819C106.342 7.34664 106.865 7.41824 107.316 7.55377C107.825 7.73021 108.355 7.90921 108.77 8.26977C109.07 8.52293 109.313 8.8886 109.326 9.29262C109.2 11.681 109.085 14.0796 109.262 16.4705C109.313 17.1277 109.392 17.7874 109.559 18.4267C109.656 18.7873 109.782 19.1504 110.007 19.4547C110.222 19.7436 110.632 19.8945 110.975 19.7564C111.28 19.6388 111.485 19.3575 111.636 19.0813C111.994 18.419 112.097 17.6621 112.299 16.9461C112.35 16.7288 112.448 16.491 112.681 16.4142C112.845 16.3094 113.016 16.4398 113.149 16.537C113.318 16.693 113.267 16.941 113.27 17.1481C113.224 18.3014 113.042 19.5084 112.363 20.4724C111.825 21.2728 110.852 21.7868 109.879 21.6743C108.988 21.6334 108.156 21.1194 107.679 20.3727C107.07 19.4521 106.826 18.35 106.665 17.2709C106.381 15.1255 106.455 12.9544 106.509 10.7988C106.419 10.8576 106.363 10.9445 106.319 11.0391C105.715 12.2436 105.305 13.5349 104.985 14.8391C104.563 16.5319 104.301 18.2656 104.242 20.0096C104.25 20.2346 104.073 20.4034 103.866 20.4545C103.385 20.6489 102.819 20.6898 102.345 20.4596C101.861 20.2346 101.507 19.7973 101.292 19.3192C101.059 18.8256 100.97 18.2835 100.893 17.7491C100.606 15.532 100.509 13.2945 100.399 11.0647C100.414 10.9036 100.229 11.0085 100.148 11.0238C99.0591 12.9161 98.506 15.0641 98.2268 17.2121C98.0527 18.4625 97.9964 19.7257 97.9784 20.9864C97.9784 21.214 97.8504 21.4339 97.6506 21.5439C97.2767 21.7561 96.826 21.7459 96.4137 21.7126C95.9194 21.6615 95.397 21.6206 94.977 21.3291C94.8003 21.214 94.6825 21.0145 94.6723 20.8023C94.6415 20.3932 94.6339 19.9815 94.598 19.5698C94.3726 19.8996 94.1857 20.2576 93.9142 20.5542C93.484 21.0631 92.9257 21.4927 92.2676 21.6513C91.3379 21.8635 90.2982 21.5566 89.6528 20.8483C89.1253 20.2806 88.841 19.5314 88.7053 18.7796C88.2367 19.7948 87.4786 20.7051 86.4747 21.2242C85.9882 21.4876 85.4427 21.6359 84.8921 21.6896C84.2877 21.7612 83.6552 21.6896 83.1097 21.4109C82.3055 21.0043 81.7063 20.2704 81.3426 19.4572C80.9175 20.4136 80.1825 21.3316 79.1326 21.6129C78.0954 21.8993 76.9763 21.4748 76.2336 20.7358C75.286 19.8076 74.7867 18.506 74.6407 17.207C74.5587 16.5779 74.5869 15.9437 74.6304 15.3147C74.7252 13.9057 74.8789 12.489 75.2451 11.1235C75.2502 11.0468 75.2502 10.9727 75.2451 10.8959C74.487 10.8601 73.729 10.8857 72.9735 10.9062C72.5996 12.1899 72.0439 13.4147 71.419 14.5936C70.3435 16.6111 69.0246 18.4958 67.5444 20.2372C67.5623 21.9146 67.6135 23.5947 67.5316 25.2696C67.4496 26.5993 67.2498 27.9444 66.6941 29.1692C66.2716 30.0796 65.6083 30.9055 64.7094 31.3837C64.041 31.7545 63.2804 31.9514 62.5198 31.9974C61.5723 31.9309 60.5889 31.6957 59.8488 31.0692C59.3289 30.6422 58.9704 30.0284 58.8346 29.3713C58.7348 28.7985 58.7066 28.195 58.8935 27.6375C59.229 26.5865 59.9026 25.6864 60.6273 24.8733C61.3597 24.0422 62.2074 23.3262 63.0064 22.5616C63.6466 21.9632 64.292 21.3674 64.9348 20.7716C64.945 20.3062 64.8733 19.8408 64.8579 19.3754C64.5609 19.7615 64.2971 20.1784 63.9232 20.498C62.9962 21.3955 61.6593 21.8584 60.3763 21.6922C59.4877 21.5362 58.7578 20.9199 58.2251 20.2218C58.0228 19.9687 57.8436 19.6951 57.6873 19.4087C57.2161 20.342 56.5349 21.2958 55.4901 21.6206C54.4478 21.9146 53.2697 21.4902 52.586 20.6668C52.1378 20.117 51.8459 19.4368 51.7511 18.7336C51.3132 19.6746 50.6422 20.5261 49.7485 21.0682C49.1748 21.4262 48.5115 21.6308 47.838 21.6845C47.1082 21.774 46.3476 21.595 45.7432 21.1782C44.6522 20.4136 44.1144 19.1171 43.7918 17.8718C43.6227 18.4267 43.3461 18.9433 43.0619 19.447C42.7725 19.8971 42.4678 20.3446 42.0785 20.7153C41.6226 21.1603 41.0464 21.5208 40.4036 21.6052C39.6635 21.6998 38.8876 21.4748 38.3165 20.9915C37.8555 20.5977 37.5124 20.0863 37.2639 19.5365C36.7979 18.5341 36.6186 17.4294 36.529 16.335C35.9528 17.6059 35.2715 18.8614 34.2625 19.8459C33.4891 20.6335 32.5109 21.2344 31.4327 21.4953C30.5825 21.7152 29.6938 21.6922 28.8257 21.6129C28.0753 21.5362 27.3147 21.3904 26.6515 21.0171C26.3313 20.8279 26.0061 20.567 25.9114 20.1911C25.8499 19.7794 26.0855 19.4035 26.3134 19.0813C26.5362 18.7847 26.7846 18.4702 27.1432 18.3398C27.4786 18.2298 27.768 18.5034 28.0292 18.6696C28.4339 19.0251 28.8923 19.3473 29.4275 19.4624C29.9499 19.5979 30.5748 19.4266 30.8847 18.9663C31.1689 18.5367 31.2483 18.0073 31.2765 17.5061C31.2714 16.5549 30.6593 15.7443 30.0165 15.0999C29.4147 14.5245 28.7822 13.9773 28.1598 13.4224C27.2738 14.9286 26.3237 16.3963 25.4273 17.8974C24.8921 18.8589 24.2442 19.7718 23.4247 20.5133C22.8306 21.0401 22.1212 21.4953 21.3196 21.6027C20.7818 21.6845 20.2363 21.416 19.9085 20.9966C19.4783 20.452 19.2939 19.7615 19.1889 19.0865C19.0276 17.8795 19.0865 16.6572 19.107 15.4425C19.1275 13.898 19.2094 12.3535 19.2606 10.809C19.2683 10.4791 19.3093 10.1467 19.276 9.81684C19.171 9.83985 19.0506 9.84241 18.984 9.93958C17.5038 11.6043 16.5793 13.673 15.8623 15.7596C15.2528 17.5854 14.8149 19.4675 14.5331 21.37C14.2924 21.5643 13.9749 21.6206 13.6778 21.5694C13.3167 21.5183 12.9454 21.5694 12.5894 21.4902C12.2693 21.4058 12.0439 21.127 11.9184 20.833C11.6572 20.2295 11.6265 19.5595 11.6316 18.91C11.6623 15.2559 11.6854 11.6017 11.711 7.94757C11.7033 7.77113 11.752 7.54866 11.9415 7.48728C12.3205 7.3671 12.7226 7.46938 13.099 7.55121C13.5216 7.66117 13.9825 7.76857 14.3001 8.09333C14.4614 8.24675 14.3923 8.48713 14.4051 8.68402C14.3974 10.7118 14.3667 12.7396 14.3769 14.7649C15.0428 12.9698 15.6984 11.1465 16.7381 9.52277C16.9686 9.18778 17.1914 8.84257 17.4757 8.55105C17.9699 7.97825 18.6486 7.4745 19.4322 7.4566C20.0212 7.43358 20.5616 7.7072 21.0789 7.95524C21.5552 8.19817 22.0213 8.54594 22.2185 9.06248C22.3465 9.36678 22.2953 9.69921 22.2902 10.0188C22.239 11.7628 22.1878 13.5068 22.1263 15.2507C22.1135 15.9616 22.0572 16.6725 22.1007 17.386C22.1212 17.7261 22.1596 18.0687 22.2774 18.3884C22.3491 18.5648 22.4541 18.7719 22.6667 18.8077C22.8664 18.8307 23.0329 18.6875 23.1763 18.5674C23.499 18.2758 23.7602 17.923 24.0163 17.5752C24.7487 16.56 25.3761 15.4732 26.0035 14.3916C26.3698 13.7216 26.7539 13.0593 27.0945 12.3765C26.9741 12.1771 26.7897 12.0185 26.6848 11.8063C26.2801 11.1542 26.1674 10.3334 26.38 9.59692C26.5721 8.87837 27.0254 8.23908 27.6169 7.79158C28.0369 7.49496 28.5235 7.30317 29.028 7.20344C29.5069 7.0807 30.0396 7.1523 30.4647 7.40801C30.7566 7.58701 30.9077 7.92967 30.9205 8.26465C30.9487 8.89371 30.7157 9.49975 30.4186 10.0444C30.1318 10.584 29.7604 11.0724 29.3712 11.5403C30.6209 12.4532 31.9219 13.3201 33.0026 14.4401C33.5685 15.036 34.0397 15.7698 34.1345 16.6035C34.2011 17.0331 34.1422 17.4652 34.0782 17.8923C35.2562 16.8669 36.1704 15.463 36.406 13.9031C36.4368 11.5199 36.4291 9.13664 36.4547 6.75594C35.3637 6.73549 34.2702 6.73293 33.1793 6.7048C32.9641 6.57694 32.9206 6.30077 32.9078 6.07063C32.9104 5.5234 33.0615 4.95316 33.4379 4.53891C33.4943 4.45196 33.6044 4.48009 33.694 4.47242C34.6672 4.48521 35.6378 4.49799 36.6109 4.51078C36.657 3.40865 36.6826 2.30397 36.7262 1.20184C36.7338 0.884759 36.7262 0.529317 36.9438 0.273603L36.931 0.271046ZM48.8342 9.46651C48.194 9.59437 47.7202 10.1083 47.4206 10.6581C47.0236 11.4048 46.8341 12.2436 46.7138 13.0746C46.5652 14.1563 46.5191 15.2559 46.578 16.3478C46.6395 17.1865 46.7522 18.0483 47.1389 18.8103C47.3566 19.222 47.6869 19.6056 48.1402 19.7667C48.4373 19.8843 48.783 19.8715 49.0647 19.7181C49.6435 19.4214 50.0353 18.8691 50.3272 18.3065C50.8394 17.2632 51.0597 16.1048 51.1749 14.9592C51.2671 13.7651 51.3004 12.5427 51.0136 11.3716C50.8625 10.8141 50.6269 10.2541 50.1941 9.85519C49.8381 9.52021 49.3157 9.35655 48.8368 9.46906L48.8342 9.46651ZM62.4199 9.50742C61.6517 9.71711 61.119 10.382 60.7758 11.0647C60.2765 12.1259 60.0716 13.2997 59.9845 14.4606C59.9282 15.7647 59.9154 17.1072 60.3174 18.3653C60.5197 18.9586 60.8655 19.5672 61.4622 19.8383C61.8335 20.0173 62.2868 19.9763 62.6351 19.759C62.9296 19.5672 63.1857 19.3166 63.3905 19.0302C63.8669 18.3807 64.1486 17.6135 64.3406 16.8387C64.6223 15.6855 64.7171 14.4938 64.7094 13.3124C64.6992 12.5018 64.6275 11.6835 64.3739 10.9113C64.2075 10.4382 63.9539 9.96515 63.5339 9.67364C63.2164 9.44861 62.7938 9.39491 62.4225 9.50742H62.4199ZM85.9907 9.60715C85.3223 9.71199 84.8101 10.2336 84.5079 10.8116C83.9625 11.8395 83.7986 13.0158 83.6961 14.1589C83.6116 15.4451 83.5758 16.7569 83.878 18.0201C84.0316 18.6364 84.2877 19.2629 84.7896 19.6772C85.1174 19.9405 85.5759 20.0889 85.9856 19.938C86.5208 19.759 86.8947 19.2987 87.1918 18.8435C87.8781 17.7107 88.1317 16.3784 88.2571 15.0769C88.3545 13.8929 88.3801 12.6808 88.0881 11.5199C87.9422 10.9496 87.6937 10.3768 87.2379 9.98305C86.905 9.68131 86.4312 9.52532 85.9856 9.60971L85.9907 9.60715ZM64.0308 23.8836C62.8476 25.0497 61.7541 26.3564 61.0959 27.8958C60.8603 28.4456 60.7323 29.0644 60.9039 29.6525C61.0191 30.1077 61.3802 30.4964 61.8386 30.614C62.4097 30.7649 63.0602 30.7649 63.5749 30.4427C64.0385 30.1358 64.3432 29.6398 64.5276 29.1232C64.8784 28.131 64.9476 27.0724 64.9962 26.0291C65.0116 25.0113 65.0398 23.991 65.0475 22.9733C64.6761 23.2367 64.3688 23.5793 64.0333 23.8836H64.0308Z" fill="#040404"/>
</g>
<defs>
<clipPath id="clip0_155_2036">
<rect width="113.27" height="32" fill="white"/>
</clipPath>
</defs>
</svg>
