<svg width="30" height="31" viewBox="0 0 30 31" fill="none" xmlns="http://www.w3.org/2000/svg">
<path d="M29.2971 19.225L26.6347 17.6875C26.9034 16.2375 26.9034 14.75 26.6347 13.3L29.2971 11.7625C29.6034 11.5875 29.7409 11.225 29.6409 10.8875C28.9471 8.66253 27.7659 6.65003 26.2222 4.97504C25.9847 4.71879 25.5972 4.65629 25.2972 4.83129L22.6347 6.36878C21.5159 5.40629 20.2284 4.66254 18.8347 4.17504V1.1063C18.8347 0.756306 18.5909 0.450057 18.2472 0.375057C15.9534 -0.137441 13.6035 -0.112441 11.4222 0.375057C11.0785 0.450057 10.8347 0.756306 10.8347 1.1063V4.18129C9.44722 4.67504 8.15973 5.41879 7.03473 6.37503L4.37849 4.83754C4.07224 4.66254 3.69099 4.71879 3.45349 4.98129C1.90975 6.65003 0.728505 8.66253 0.0347573 10.8938C-0.0714923 11.2313 0.0722572 11.5938 0.378506 11.7688L3.041 13.3063C2.77225 14.7563 2.77225 16.2437 3.041 17.6937L0.378506 19.2312C0.0722572 19.4062 -0.0652423 19.7687 0.0347573 20.1062C0.728505 22.3312 1.90975 24.3437 3.45349 26.0187C3.69099 26.275 4.07849 26.3375 4.37849 26.1625L7.04098 24.625C8.15973 25.5875 9.44722 26.3312 10.841 26.8187V29.8937C10.841 30.2437 11.0847 30.5499 11.4285 30.6249C13.7222 31.1374 16.0722 31.1124 18.2534 30.6249C18.5972 30.5499 18.8409 30.2437 18.8409 29.8937V26.8187C20.2284 26.325 21.5159 25.5812 22.6409 24.625L25.3034 26.1625C25.6097 26.3375 25.9909 26.2812 26.2284 26.0187C27.7721 24.35 28.9534 22.3375 29.6471 20.1062C29.7409 19.7625 29.6034 19.4 29.2971 19.225ZM14.8347 20.4937C12.0785 20.4937 9.83472 18.25 9.83472 15.4937C9.83472 12.7375 12.0785 10.4938 14.8347 10.4938C17.5909 10.4938 19.8347 12.7375 19.8347 15.4937C19.8347 18.25 17.5909 20.4937 14.8347 20.4937Z" fill="black"/>
</svg>
