<svg width="24" height="25" viewBox="0 0 24 25" fill="none" xmlns="http://www.w3.org/2000/svg">
<path fill-rule="evenodd" clip-rule="evenodd" d="M12.2488 2.64028C12.194 2.58657 12.1063 2.58657 12.0515 2.64028L2.64228 11.8627C2.61524 11.8892 2.6 11.9254 2.6 11.9633V23L8.52738 22.9997V18.1429L8.53284 17.9539L8.53351 17.9424C8.64374 16.0399 10.2205 14.5317 12.1501 14.5317H12.1617L12.3507 14.5372L12.3623 14.5379C14.2647 14.6481 15.7729 16.2249 15.7729 18.1545V22.9997H21.7003V11.9633C21.7003 11.9254 21.685 11.8892 21.658 11.8627L12.2488 2.64028ZM10.9315 1.49762C11.6085 0.834126 12.6918 0.834126 13.3688 1.49762L22.778 10.72C23.112 11.0474 23.3003 11.4955 23.3003 11.9633V23.3292C23.3003 24.0309 22.7315 24.5997 22.0298 24.5997H15.4434C14.7417 24.5997 14.1729 24.0309 14.1729 23.3292V18.1545C14.1729 17.0811 13.3364 16.2025 12.2804 16.1358L12.1395 16.1317C11.071 16.1372 10.198 16.9717 10.1315 18.0243L10.1274 18.166V23.3292C10.1273 24.0308 9.5586 24.5996 8.85701 24.5997L2.27056 24.6C2.27054 24.6 2.27058 24.6 2.27056 24.6C1.64599 24.6 1.12812 24.1502 1.02043 23.557L1.01397 23.5214L1 23.3653V11.9633C1 11.4955 1.18824 11.0474 1.52231 10.72L10.9315 1.49762Z" fill="black"/>
<path fill-rule="evenodd" clip-rule="evenodd" d="M10.8964 1.46193C11.5928 0.779374 12.7073 0.779374 13.4037 1.46193L22.8129 10.6843C23.1565 11.0212 23.3502 11.4821 23.3502 11.9633V23.3292C23.3502 24.0585 22.759 24.6497 22.0297 24.6497H15.4433C14.714 24.6497 14.1228 24.0585 14.1228 23.3292V18.1545C14.1228 17.108 13.3075 16.2513 12.278 16.1858L12.1388 16.1818C11.0974 16.1876 10.2466 17.0008 10.1813 18.0266C10.1813 18.0269 10.1813 18.0264 10.1813 18.0266L10.1773 18.166V23.3292C10.1772 24.0584 9.58612 24.6496 8.85692 24.6497L2.27047 24.65C1.62124 24.6501 1.08306 24.1824 0.971141 23.566L0.963866 23.5259L0.949707 23.3653L0.949907 11.9633C0.949907 11.4821 1.14356 11.0212 1.48722 10.6843L10.8964 1.46193ZM13.3337 1.53334C12.6762 0.888902 11.6239 0.888902 10.9664 1.53334L1.55722 10.7557C1.23274 11.0738 1.04991 11.509 1.04991 11.9633V23.363L1.06347 23.5147L1.06953 23.5481C1.17299 24.118 1.67055 24.5501 2.27046 24.55L8.85691 24.5497C9.53088 24.5496 10.0772 24.0032 10.0773 23.3292V18.1646L10.0814 18.0212C10.1496 16.9424 11.0442 16.0874 12.1392 16.0818L12.1409 16.0818L12.2834 16.0859C13.3657 16.1543 14.2228 17.0546 14.2228 18.1545V23.3292C14.2228 24.0033 14.7692 24.5497 15.4433 24.5497H22.0297C22.7038 24.5497 23.2502 24.0033 23.2502 23.3292V11.9633C23.2502 11.509 23.0674 11.0738 22.7429 10.7557L13.3337 1.53334ZM12.2137 2.676C12.1783 2.64135 12.1218 2.64135 12.0864 2.676L2.67718 11.8984C2.65974 11.9155 2.64991 11.9389 2.64991 11.9633V22.95L8.47728 22.9497V18.1415L8.48281 17.951L8.4835 17.9395C8.59525 16.0107 10.1938 14.4817 12.15 14.4817H12.163L12.3535 14.4873L12.3651 14.4879C14.2938 14.5997 15.8228 16.1982 15.8228 18.1545V22.9497H21.6502V11.9633C21.6502 11.9389 21.6404 11.9155 21.6229 11.8984L12.2137 2.676ZM12.0164 2.60459C12.0906 2.53182 12.2095 2.53182 12.2837 2.60458L21.6929 11.827C21.7295 11.8629 21.7502 11.912 21.7502 11.9633V23.0497H15.7228V18.1545C15.7228 16.2515 14.2354 14.6965 12.3593 14.5878L12.3484 14.5872L12.1609 14.5817H12.15C10.2471 14.5817 8.69204 16.0691 8.58333 17.9453L8.58272 17.9554L8.58266 17.9568L8.57728 18.1429V23.0497L2.54991 23.05V11.9633C2.54991 11.912 2.57055 11.8629 2.60719 11.827L12.0164 2.60459Z" fill="black"/>
</svg>
