<svg width="24" height="24" viewBox="0 0 24 24" fill="none" xmlns="http://www.w3.org/2000/svg">
<path fill-rule="evenodd" clip-rule="evenodd" d="M7.93009 4.18092C6.96462 4.18092 6.01261 4.45312 5.16928 4.96932C2.55918 6.56918 1.64063 10.141 3.15668 12.9285C3.44035 13.4505 3.94839 14.0774 4.60072 14.7566C5.24941 15.432 6.0259 16.144 6.83175 16.8359C8.4433 18.2197 10.1581 19.5115 11.1714 20.2534L11.1717 20.2536C11.4144 20.4317 11.6996 20.525 11.9993 20.525C12.2983 20.525 12.5841 20.4321 12.8322 20.2528C13.8455 19.5108 15.5599 18.2194 17.171 16.8359C17.9769 16.144 18.7534 15.432 19.4021 14.7566C20.0544 14.0774 20.5624 13.4506 20.8461 12.9286C22.358 10.1409 21.4393 6.56899 18.8291 4.96921C17.9858 4.45309 17.0339 4.18092 16.0685 4.18092C14.6219 4.18092 13.2604 4.76464 12.2368 5.81007L11.9993 6.05259L11.7618 5.81007C10.7382 4.76464 9.37664 4.18092 7.93009 4.18092ZM4.82115 4.4157C5.76573 3.83755 6.83778 3.52942 7.93009 3.52942C9.45136 3.52942 10.8852 4.10298 11.9993 5.12727C13.1133 4.10298 14.5472 3.52942 16.0685 3.52942C17.1608 3.52942 18.2328 3.83755 19.1774 4.4157C22.0996 6.20671 23.0954 10.1625 21.4282 13.2362C21.1025 13.8355 20.5462 14.5126 19.8814 15.2047C19.213 15.9006 18.4195 16.6276 17.6046 17.3274C15.9745 18.7271 14.2442 20.0303 13.2249 20.7766L13.2235 20.7776C12.8645 21.0374 12.4421 21.1765 11.9993 21.1765C11.5568 21.1765 11.1336 21.0376 10.7776 20.7763C9.75827 20.03 8.02817 18.727 6.39822 17.3274C5.58325 16.6276 4.78977 15.9006 4.12139 15.2047C3.45667 14.5126 2.90047 13.8358 2.57481 13.2365M4.82115 4.4157C1.89899 6.2067 0.903074 10.1627 2.57481 13.2365L4.82115 4.4157ZM5.49176 5.46852C6.23371 5.01489 7.07376 4.773 7.93009 4.773C9.43227 4.773 10.822 5.48995 11.7573 6.71877L11.7582 6.72002L11.9993 7.03991L12.2403 6.72002L12.2413 6.71877C13.1766 5.48981 14.5707 4.773 16.0685 4.773C16.9246 4.773 17.7648 5.01475 18.5031 5.4688C20.8746 6.92109 21.6692 10.144 20.3063 12.648C20.0009 13.2091 19.4441 13.8642 18.78 14.5366C18.1109 15.2141 17.3133 15.9287 16.5073 16.6098C14.8949 17.9725 13.234 19.2139 12.4662 19.7773L12.4646 19.7785C12.188 19.9788 11.8063 19.9788 11.5298 19.7785L11.5286 19.7777C10.7605 19.2161 9.09949 17.9756 7.48707 16.613C6.68101 15.9318 5.88339 15.2169 5.21425 14.5388C4.55027 13.8659 3.99347 13.2102 3.68809 12.648M5.83992 6.0221C3.78357 7.28524 3.06083 10.1186 4.26985 12.3398C4.52956 12.818 5.0323 13.4205 5.6874 14.0844C6.33745 14.7431 7.11876 15.4439 7.91665 16.1182C9.51156 17.466 11.158 18.6957 11.9209 19.2536C11.9646 19.285 12.0291 19.2851 12.073 19.2539C12.8363 18.6937 14.4828 17.4629 16.0777 16.1151C16.8756 15.4407 17.657 14.7402 18.307 14.0819C18.9622 13.4185 19.4648 12.817 19.7245 12.3398C20.9337 10.1183 20.2104 7.28098 18.1546 6.02218L18.154 6.02182C17.5176 5.63036 16.7978 5.42449 16.0685 5.42449C14.7919 5.42449 13.5886 6.03392 12.7698 7.10933C12.7696 7.10954 12.7695 7.10976 12.7693 7.10997L11.9993 8.1319L11.2292 7.10997C11.2291 7.10974 11.2289 7.10951 11.2287 7.10928C10.4098 6.03376 9.21072 5.42449 7.93009 5.42449C7.20104 5.42449 6.481 5.63022 5.83992 6.0221ZM5.49176 5.46852L5.49119 5.46886L5.49176 5.46852ZM5.49119 5.46886C3.12017 6.92507 2.32503 10.1437 3.68809 12.648L5.49119 5.46886Z" fill="black"/>
<path d="M11.9994 20.8235C11.6292 20.8235 11.2758 20.7078 10.9771 20.4888C8.94934 19.0054 4.10293 15.3155 2.88712 13.0801C1.29689 10.1588 2.25187 6.40697 5.01163 4.71699C5.90351 4.17156 6.91318 3.88232 7.93968 3.88232C9.47521 3.88232 10.9182 4.50212 11.9994 5.60537C13.0806 4.50212 14.5236 3.88232 16.0591 3.88232C17.0856 3.88232 18.0953 4.17156 18.9871 4.71699C21.7469 6.40697 22.7019 10.1588 21.1159 13.0801C19.9001 15.3155 15.0536 19.0054 13.0259 20.4888C12.723 20.7078 12.3696 20.8235 11.9994 20.8235ZM7.93968 5.12192C7.14877 5.12192 6.37048 5.34505 5.68054 5.76651C3.47189 7.12181 2.71463 10.1382 3.99776 12.4934C5.12522 14.5677 10.1988 18.3774 11.7259 19.493C11.8858 19.6087 12.1088 19.6087 12.2686 19.493C13.7958 18.3732 18.8694 14.5635 19.9968 12.4934C21.2799 10.1382 20.5227 7.11768 18.314 5.76651C17.6283 5.34505 16.85 5.12192 16.0591 5.12192C14.675 5.12192 13.3793 5.78304 12.5042 6.93174L11.9994 7.60112L11.4946 6.93174C10.6195 5.78304 9.32797 5.12192 7.93968 5.12192Z" fill="black"/>
</svg>
