<svg width="40" height="40" viewBox="0 0 40 40" fill="none" xmlns="http://www.w3.org/2000/svg">
<path fill-rule="evenodd" clip-rule="evenodd" d="M7.5 5.625V32.6905C7.5 33.019 7.62929 33.3343 7.85992 33.5681C8.34462 34.0597 9.13606 34.0653 9.62764 33.5806L20.3134 23.0442L30.9992 33.5806C31.2331 33.8112 31.5484 33.9405 31.8769 33.9405C32.5672 33.9405 33.1269 33.3809 33.1269 32.6905V5.625C33.1269 5.27982 32.847 5 32.5019 5H8.125C7.77982 5 7.5 5.27982 7.5 5.625ZM9.375 31.1965V6.875H31.2519V31.1965L21.1911 21.2764C20.7044 20.7965 19.9225 20.7965 19.4358 21.2764L9.375 31.1965Z" fill="black"/>
<path d="M7.85992 33.5681L8.21595 33.2171H8.21595L7.85992 33.5681ZM9.62764 33.5806L9.9787 33.9366H9.9787L9.62764 33.5806ZM20.3134 23.0442L20.6645 22.6881L20.3134 22.342L19.9624 22.6881L20.3134 23.0442ZM30.9992 33.5806L30.6481 33.9366H30.6482L30.9992 33.5806ZM9.375 6.875V6.375H8.875V6.875H9.375ZM9.375 31.1965H8.875V32.3917L9.72606 31.5525L9.375 31.1965ZM31.2519 6.875H31.7519V6.375H31.2519V6.875ZM31.2519 31.1965L30.9008 31.5525L31.7519 32.3917V31.1965H31.2519ZM21.1911 21.2764L20.84 21.6324L21.1911 21.2764ZM19.4358 21.2764L19.0847 20.9203L19.4358 21.2764ZM8 32.6905V5.625H7V32.6905H8ZM8.21595 33.2171C8.07758 33.0768 8 32.8876 8 32.6905H7C7 33.1504 7.18101 33.5917 7.50388 33.9192L8.21595 33.2171ZM9.27658 33.2246C8.98164 33.5154 8.50677 33.512 8.21595 33.2171L7.50388 33.9192C8.18248 34.6074 9.29049 34.6152 9.9787 33.9366L9.27658 33.2246ZM19.9624 22.6881L9.27658 33.2246L9.9787 33.9366L20.6645 23.4002L19.9624 22.6881ZM31.3503 33.2246L20.6645 22.6881L19.9624 23.4002L30.6481 33.9366L31.3503 33.2246ZM31.8769 33.4405C31.6798 33.4405 31.4906 33.3629 31.3503 33.2246L30.6482 33.9366C30.9756 34.2595 31.417 34.4405 31.8769 34.4405V33.4405ZM32.6269 32.6905C32.6269 33.1047 32.2911 33.4405 31.8769 33.4405V34.4405C32.8433 34.4405 33.6269 33.657 33.6269 32.6905H32.6269ZM32.6269 5.625V32.6905H33.6269V5.625H32.6269ZM32.5019 5.5C32.5709 5.5 32.6269 5.55596 32.6269 5.625H33.6269C33.6269 5.00368 33.1232 4.5 32.5019 4.5V5.5ZM8.125 5.5H32.5019V4.5H8.125V5.5ZM8 5.625C8 5.55596 8.05596 5.5 8.125 5.5V4.5C7.50368 4.5 7 5.00368 7 5.625H8ZM8.875 6.875V31.1965H9.875V6.875H8.875ZM31.2519 6.375H9.375V7.375H31.2519V6.375ZM31.7519 31.1965V6.875H30.7519V31.1965H31.7519ZM20.84 21.6324L30.9008 31.5525L31.6029 30.8405L21.5421 20.9203L20.84 21.6324ZM19.7868 21.6324C20.0789 21.3445 20.548 21.3445 20.84 21.6324L21.5421 20.9203C20.8608 20.2485 19.7661 20.2485 19.0847 20.9203L19.7868 21.6324ZM9.72606 31.5525L19.7868 21.6324L19.0847 20.9203L9.02394 30.8405L9.72606 31.5525Z" fill="black"/>
</svg>
