<svg width="40" height="40" viewBox="0 0 40 40" fill="none" xmlns="http://www.w3.org/2000/svg">
<path fill-rule="evenodd" clip-rule="evenodd" d="M33.75 20C33.75 12.4061 27.5939 6.25 20 6.25C12.4061 6.25 6.25 12.4061 6.25 20C6.25 27.5939 12.4061 33.75 20 33.75C21.6574 33.75 23.9343 33.1454 26.8306 31.9361L31.5141 33.763L31.6529 33.8082C32.2583 33.9668 32.8999 33.65 33.1329 33.0528C33.226 32.8139 33.2435 32.5522 33.1829 32.3032L31.8771 26.9325L32.0909 26.4208C33.197 23.7266 33.75 21.5863 33.75 20ZM30.3392 25.7505L29.9082 26.7711L31.0775 31.5801L26.8068 29.9142L25.6404 30.3979C23.1807 31.3904 21.2807 31.875 20 31.875C13.4416 31.875 8.125 26.5584 8.125 20C8.125 13.4416 13.4416 8.125 20 8.125C26.5584 8.125 31.875 13.4416 31.875 20C31.875 21.3069 31.3713 23.2441 30.3392 25.7505Z" fill="black"/>
<path d="M26.8306 31.9361L27.0123 31.4702L26.8242 31.3969L26.638 31.4747L26.8306 31.9361ZM31.5141 33.763L31.3324 34.2288L31.3458 34.2341L31.3595 34.2385L31.5141 33.763ZM31.6529 33.8082L31.4984 34.2837L31.5121 34.2882L31.5262 34.2918L31.6529 33.8082ZM33.1329 33.0528L33.5987 33.2345L33.1329 33.0528ZM33.1829 32.3032L32.6971 32.4213V32.4213L33.1829 32.3032ZM31.8771 26.9325L31.4157 26.7397L31.3524 26.8911L31.3912 27.0506L31.8771 26.9325ZM32.0909 26.4208L32.5523 26.6137L32.5535 26.6107L32.0909 26.4208ZM29.9082 26.7711L29.4476 26.5766L29.3833 26.7287L29.4223 26.8892L29.9082 26.7711ZM30.3392 25.7505L30.7998 25.945L30.8016 25.9409L30.3392 25.7505ZM31.0775 31.5801L30.8958 32.0459L31.7902 32.3948L31.5634 31.462L31.0775 31.5801ZM26.8068 29.9142L26.9885 29.4483L26.801 29.3752L26.6152 29.4523L26.8068 29.9142ZM25.6404 30.3979L25.8275 30.8616L25.832 30.8597L25.6404 30.3979ZM20 6.75C27.3178 6.75 33.25 12.6822 33.25 20H34.25C34.25 12.1299 27.8701 5.75 20 5.75V6.75ZM6.75 20C6.75 12.6822 12.6822 6.75 20 6.75V5.75C12.1299 5.75 5.75 12.1299 5.75 20H6.75ZM20 33.25C12.6822 33.25 6.75 27.3178 6.75 20H5.75C5.75 27.8701 12.1299 34.25 20 34.25V33.25ZM26.638 31.4747C23.758 32.6772 21.5558 33.25 20 33.25V34.25C21.7591 34.25 24.1107 33.6136 27.0233 32.3975L26.638 31.4747ZM31.6958 33.2972L27.0123 31.4702L26.6489 32.4019L31.3324 34.2288L31.6958 33.2972ZM31.8075 33.3327L31.6687 33.2875L31.3595 34.2385L31.4984 34.2837L31.8075 33.3327ZM32.6671 32.871C32.5274 33.229 32.1424 33.4196 31.7797 33.3245L31.5262 34.2918C32.3743 34.5141 33.2724 34.0709 33.5987 33.2345L32.6671 32.871ZM32.6971 32.4213C32.7334 32.5707 32.723 32.7278 32.6671 32.871L33.5987 33.2345C33.7291 32.9001 33.7536 32.5337 33.6688 32.185L32.6971 32.4213ZM31.3912 27.0506L32.6971 32.4213L33.6688 32.185L32.3629 26.8143L31.3912 27.0506ZM31.6296 26.228L31.4157 26.7397L32.3384 27.1253L32.5522 26.6136L31.6296 26.228ZM33.25 20C33.25 21.4876 32.7269 23.5551 31.6284 26.2309L32.5535 26.6107C33.6671 23.8981 34.25 21.6851 34.25 20H33.25ZM30.3688 26.9656L30.7998 25.945L29.8786 25.556L29.4476 26.5766L30.3688 26.9656ZM31.5634 31.462L30.394 26.653L29.4223 26.8892L30.5917 31.6982L31.5634 31.462ZM26.625 30.38L30.8958 32.0459L31.2592 31.1143L26.9885 29.4483L26.625 30.38ZM25.832 30.8597L26.9983 30.376L26.6152 29.4523L25.4489 29.936L25.832 30.8597ZM20 32.375C21.3805 32.375 23.3542 31.8596 25.8275 30.8616L25.4533 29.9342C23.0072 30.9213 21.1808 31.375 20 31.375V32.375ZM7.625 20C7.625 26.8345 13.1655 32.375 20 32.375V31.375C13.7178 31.375 8.625 26.2822 8.625 20H7.625ZM20 7.625C13.1655 7.625 7.625 13.1655 7.625 20H8.625C8.625 13.7178 13.7178 8.625 20 8.625V7.625ZM32.375 20C32.375 13.1655 26.8345 7.625 20 7.625V8.625C26.2822 8.625 31.375 13.7178 31.375 20H32.375ZM30.8016 25.9409C31.8392 23.4208 32.375 21.4086 32.375 20H31.375C31.375 21.2051 30.9033 23.0674 29.8769 25.5601L30.8016 25.9409Z" fill="black"/>
</svg>
