<svg width="24" height="24" viewBox="0 0 24 24" fill="none" xmlns="http://www.w3.org/2000/svg">
<path fill-rule="evenodd" clip-rule="evenodd" d="M8.41278 3.3L11.0734 6.62583L10.9399 6.70005H15.3601L12.64 3.3H8.41278ZM20.7 6.70005H17.4399L17.5735 6.62583L14.9128 3.3H17.5C19.2673 3.3 20.7 4.73269 20.7 6.5V6.70005ZM8.86001 6.70005L6.1547 3.31841C4.54979 3.4906 3.3 4.84935 3.3 6.5V6.70005H8.86001ZM3.3 17.5V8.50005H20.7V17.5C20.7 19.2673 19.2673 20.7 17.5 20.7H6.5C4.73269 20.7 3.3 19.2673 3.3 17.5ZM6.5 1.5C3.73858 1.5 1.5 3.73858 1.5 6.5V17.5C1.5 20.2614 3.73858 22.5 6.5 22.5H17.5C20.2614 22.5 22.5 20.2614 22.5 17.5V6.5C22.5 3.73858 20.2614 1.5 17.5 1.5H6.5ZM15.25 14.433C15.5833 14.2406 15.5833 13.7594 15.25 13.567L9.99996 10.5359C9.66663 10.3435 9.24996 10.584 9.24996 10.9689V17.0311C9.24996 17.416 9.66663 17.6566 9.99996 17.4641L15.25 14.433Z" fill="black"/>
</svg>
