<svg width="21" height="21" viewBox="0 0 21 21" fill="none" xmlns="http://www.w3.org/2000/svg">
<path fill-rule="evenodd" clip-rule="evenodd" d="M18.9733 18.9088C19.1391 18.7447 19.1395 18.477 18.9744 18.3123L15.2426 14.5919C16.5135 13.178 17.292 11.3195 17.292 9.27211C17.292 4.87113 13.7108 1.30084 9.29638 1.30084C4.88197 1.30084 1.30078 4.87113 1.30078 9.27211C1.30078 13.6731 4.88197 17.2434 9.29638 17.2434C11.3584 17.2434 13.2268 16.4588 14.645 15.1834L18.3807 18.9078C18.5444 19.0709 18.8091 19.0714 18.9733 18.9088ZM2.14242 9.27211C2.14242 5.34102 5.35329 2.13992 9.29638 2.13992C13.2395 2.13992 16.4503 5.34102 16.4503 9.27211C16.4503 13.2032 13.2395 16.4043 9.29638 16.4043C5.35329 16.4043 2.14242 13.2032 2.14242 9.27211Z" fill="black" stroke="black" stroke-width="0.852466" stroke-linecap="round" stroke-linejoin="round"/>
</svg>
